<?xml version="1.0" encoding="utf-8"?>
<svg id="master-artboard" viewBox="0 0 500 500" version="1.1" xmlns="http://www.w3.org/2000/svg" x="0px" y="0px" width="500px" height="500px" enable-background="new 0 0 1400 980"><rect id="ee-background" x="0" y="0" width="500" height="500" style="fill: white; fill-opacity: 0; pointer-events: none;"/>
<g transform="matrix(1, 0, 0, 1, -502.74251975754714, -30.349286118155348)">
			<path d="M561.8,146.5c-1,0-1.9-0.8-1.9-1.9v-0.8c0-1.5,2.2-2.4,3.2-1.3c0.4,0.4,0.6,0.8,0.6,1.3l0,0.5c0,0.1,0,0.2,0,0.2v0.1&#10;&#9;&#9;&#9;&#9;C563.7,145.7,562.8,146.5,561.8,146.5z" style="fill: rgb(84, 84, 84);"/>
		</g><path d="M561.8,389.6c-1,0-1.9-0.8-1.9-1.9v-4.4c0-1,0.8-1.9,1.9-1.9c1,0,1.9,0.8,1.9,1.9c0,0.4,0,0.9,0.1,1.3l0,0.8l0,1&#10;&#9;&#9;&#9;&#9;c0,0.4-0.1,0.9-0.1,1.3C563.7,388.7,562.8,389.6,561.8,389.6z" transform="matrix(1, 0, 0, 1, -502.74251975754714, -30.349286118155348)" style="fill: rgb(84, 84, 84);"/><path d="M561.9,387.4L561.9,387.4c-1,0-1.8-0.8-1.9-1.8l0-0.7c0-0.5-0.1-1-0.1-1.6V144.6c0-0.2,0-0.4,0-0.6&#10;&#9;&#9;&#9;&#9;c0.5-24.7,20.7-44.6,45.2-44.6c1,0,1.9,0.8,1.9,1.9v243.1c0,1-0.8,1.9-1.9,1.9c-22.1,0-40.2,17.3-41.3,39.3&#10;&#9;&#9;&#9;&#9;C563.7,386.6,562.9,387.4,561.9,387.4z M603.2,103.2c-21.6,1-39.1,18.8-39.5,40.6l0,0.5l0,225.4c6.7-15.5,21.9-26.4,39.6-27.2&#10;&#9;&#9;&#9;&#9;V103.2z" transform="matrix(1, 0, 0, 1, -502.74251975754714, -30.349286118155348)" style="fill: rgb(84, 84, 84);"/><path d="M941.9,146.5c-1,0-1.9-0.8-1.9-1.9l0-0.3c0,0,0-0.4,0-0.5c0-0.5,0.2-1,0.5-1.4c1.1-1.1,3.3-0.2,3.3,1.3v0.8&#10;&#9;&#9;&#9;&#9;C943.8,145.7,942.9,146.5,941.9,146.5z" transform="matrix(1, 0, 0, 1, -502.74251975754714, -30.349286118155348)" style="fill: rgb(84, 84, 84);"/><path d="M941.9,389.6c-1,0-1.9-0.8-1.9-1.9c0-0.5,0-0.9-0.1-1.3l0-0.8l0-0.9c0-0.4,0.1-0.9,0.1-1.3c0-1,0.8-1.9,1.9-1.9&#10;&#9;&#9;&#9;&#9;s1.9,0.8,1.9,1.9v4.4C943.8,388.7,942.9,389.6,941.9,389.6z" transform="matrix(1, 0, 0, 1, -502.74251975754714, -30.349286118155348)" style="fill: rgb(84, 84, 84);"/><path d="M941.8,387.4c-1,0-1.8-0.8-1.9-1.8c-1.1-22.1-19.3-39.3-41.3-39.3c-1,0-1.9-0.8-1.9-1.9V101.3c0-1,0.8-1.9,1.9-1.9&#10;&#9;&#9;&#9;&#9;c24.4,0,44.7,19.9,45.2,44.4c0,0.5,0,0.7,0,0.9v238.7c0,0.5,0,1.1-0.1,1.6l0,0.7C943.6,386.6,942.8,387.4,941.8,387.4z&#10;&#9;&#9;&#9;&#9; M900.4,342.5c17.7,0.7,32.8,11.6,39.6,27.2V144.6c0,0,0-0.7,0-0.8c-0.4-21.8-18-39.6-39.5-40.6V342.5z" transform="matrix(1, 0, 0, 1, -502.74251975754714, -30.349286118155348)" style="fill: rgb(84, 84, 84);"/><path d="M898.5,428.5H605.1c-24.1,0-43.9-18.8-45.1-42.9c1.2-23.6,20-42.1,43.2-43.1V143.8c0-1,0.8-1.9,1.9-1.9h293.4&#10;&#9;&#9;&#9;&#9;c1,0,1.9,0.8,1.9,1.9v198.7c23.2,1,42,19.4,43.2,42.9C942.4,409.7,922.6,428.5,898.5,428.5z M607,145.7v198.7&#10;&#9;&#9;&#9;&#9;c0,1-0.8,1.9-1.9,1.9c-22.1,0-40.2,17.3-41.3,39.3c1.1,21.9,19.3,39.1,41.3,39.1h293.4c22.1,0,40.2-17.3,41.3-39.3&#10;&#9;&#9;&#9;&#9;c-1.1-21.9-19.3-39.1-41.3-39.1c-1,0-1.9-0.8-1.9-1.9V145.7H607z" transform="matrix(1, 0, 0, 1, -502.74251975754714, -30.349286118155348)" style="fill: rgb(84, 84, 84);"/><g transform="matrix(1, 0, 0, 1, -502.74251975754714, -30.349286118155348)">
				<path d="M715.7,256.8h-63.8c-1,0-1.9-0.8-1.9-1.9v-63.8c0-1,0.8-1.9,1.9-1.9h63.8c1,0,1.9,0.8,1.9,1.9v63.8&#10;&#9;&#9;&#9;&#9;&#9;C717.5,255.9,716.7,256.8,715.7,256.8z M653.8,253h60v-60h-60V253z" style="fill: rgb(84, 84, 84);"/>
			</g><path d="M851.8,256.8H788c-1,0-1.9-0.8-1.9-1.9v-63.8c0-1,0.8-1.9,1.9-1.9h63.8c1,0,1.9,0.8,1.9,1.9v63.8&#10;&#9;&#9;&#9;&#9;&#9;C853.6,255.9,852.8,256.8,851.8,256.8z M789.9,253h60v-60h-60V253z" transform="matrix(1, 0, 0, 1, -502.74251975754714, -30.349286118155348)" style="fill: rgb(84, 84, 84);"/><path d="M715.7,381.2h-63.8c-1,0-1.9-0.8-1.9-1.9v-63.8c0-1,0.8-1.9,1.9-1.9h63.8c1,0,1.9,0.8,1.9,1.9v63.8&#10;&#9;&#9;&#9;&#9;&#9;C717.5,380.4,716.7,381.2,715.7,381.2z M653.8,377.4h60v-60h-60V377.4z" transform="matrix(1, 0, 0, 1, -502.74251975754714, -30.349286118155348)" style="fill: rgb(84, 84, 84);"/><path d="M851.8,381.2H788c-1,0-1.9-0.8-1.9-1.9v-63.8c0-1,0.8-1.9,1.9-1.9h63.8c1,0,1.9,0.8,1.9,1.9v63.8&#10;&#9;&#9;&#9;&#9;&#9;C853.6,380.4,852.8,381.2,851.8,381.2z M789.9,377.4h60v-60h-60V377.4z" transform="matrix(1, 0, 0, 1, -502.74251975754714, -30.349286118155348)" style="fill: rgb(84, 84, 84);"/><g transform="matrix(1, 0, 0, 1, -502.74251975754714, -30.349286118155348)">
					<path d="M723.2,224.9h-7.5c-1,0-1.9-0.8-1.9-1.9c0-1,0.8-1.9,1.9-1.9h7.5c1,0,1.9,0.8,1.9,1.9&#10;&#9;&#9;&#9;&#9;&#9;&#9;C725.1,224,724.2,224.9,723.2,224.9z" style="fill: rgb(84, 84, 84);"/>
				</g><path d="M770.4,224.9h-13.5c-1,0-1.9-0.8-1.9-1.9c0-1,0.8-1.9,1.9-1.9h13.5c1,0,1.9,0.8,1.9,1.9&#10;&#9;&#9;&#9;&#9;&#9;&#9;C772.2,224,771.4,224.9,770.4,224.9z M746.8,224.9h-13.5c-1,0-1.9-0.8-1.9-1.9c0-1,0.8-1.9,1.9-1.9h13.5c1,0,1.9,0.8,1.9,1.9&#10;&#9;&#9;&#9;&#9;&#9;&#9;C748.7,224,747.8,224.9,746.8,224.9z" transform="matrix(1, 0, 0, 1, -502.74251975754714, -30.349286118155348)" style="fill: rgb(84, 84, 84);"/><path d="M788,224.9h-7.5c-1,0-1.9-0.8-1.9-1.9c0-1,0.8-1.9,1.9-1.9h7.5c1,0,1.9,0.8,1.9,1.9C789.9,224,789,224.9,788,224.9z" transform="matrix(1, 0, 0, 1, -502.74251975754714, -30.349286118155348)" style="fill: rgb(84, 84, 84);"/><g transform="matrix(1, 0, 0, 1, -502.74251975754714, -30.349286118155348)">
					<path d="M819.9,264.3c-1,0-1.9-0.8-1.9-1.9v-7.5c0-1,0.8-1.9,1.9-1.9s1.9,0.8,1.9,1.9v7.5C821.8,263.4,820.9,264.3,819.9,264.3&#10;&#9;&#9;&#9;&#9;&#9;&#9;z" style="fill: rgb(84, 84, 84);"/>
				</g><path d="M819.9,296.2c-1,0-1.9-0.8-1.9-1.9v-18.3c0-1,0.8-1.9,1.9-1.9s1.9,0.8,1.9,1.9v18.3&#10;&#9;&#9;&#9;&#9;&#9;&#9;C821.8,295.4,820.9,296.2,819.9,296.2z" transform="matrix(1, 0, 0, 1, -502.74251975754714, -30.349286118155348)" style="fill: rgb(84, 84, 84);"/><path d="M819.9,317.4c-1,0-1.9-0.8-1.9-1.9V308c0-1,0.8-1.9,1.9-1.9s1.9,0.8,1.9,1.9v7.5C821.8,316.6,820.9,317.4,819.9,317.4z&#10;&#9;&#9;&#9;&#9;&#9;&#9;" transform="matrix(1, 0, 0, 1, -502.74251975754714, -30.349286118155348)" style="fill: rgb(84, 84, 84);"/><g transform="matrix(1, 0, 0, 1, -502.74251975754714, -30.349286118155348)">
					<path d="M788,349.3h-7.5c-1,0-1.9-0.8-1.9-1.9s0.8-1.9,1.9-1.9h7.5c1,0,1.9,0.8,1.9,1.9S789,349.3,788,349.3z" style="fill: rgb(84, 84, 84);"/>
				</g><path d="M770.4,349.3h-13.5c-1,0-1.9-0.8-1.9-1.9s0.8-1.9,1.9-1.9h13.5c1,0,1.9,0.8,1.9,1.9S771.4,349.3,770.4,349.3z&#10;&#9;&#9;&#9;&#9;&#9;&#9; M746.8,349.3h-13.5c-1,0-1.9-0.8-1.9-1.9s0.8-1.9,1.9-1.9h13.5c1,0,1.9,0.8,1.9,1.9S747.8,349.3,746.8,349.3z" transform="matrix(1, 0, 0, 1, -502.74251975754714, -30.349286118155348)" style="fill: rgb(84, 84, 84);"/><path d="M723.2,349.3h-7.5c-1,0-1.9-0.8-1.9-1.9s0.8-1.9,1.9-1.9h7.5c1,0,1.9,0.8,1.9,1.9S724.2,349.3,723.2,349.3z" transform="matrix(1, 0, 0, 1, -502.74251975754714, -30.349286118155348)" style="fill: rgb(84, 84, 84);"/><g transform="matrix(1, 0, 0, 1, -502.74251975754714, -30.349286118155348)">
					<path d="M683.8,317.4c-1,0-1.9-0.8-1.9-1.9V308c0-1,0.8-1.9,1.9-1.9s1.9,0.8,1.9,1.9v7.5C685.7,316.6,684.8,317.4,683.8,317.4z&#10;&#9;&#9;&#9;&#9;&#9;&#9;" style="fill: rgb(84, 84, 84);"/>
				</g><path d="M683.8,296.2c-1,0-1.9-0.8-1.9-1.9v-18.3c0-1,0.8-1.9,1.9-1.9s1.9,0.8,1.9,1.9v18.3&#10;&#9;&#9;&#9;&#9;&#9;&#9;C685.7,295.4,684.8,296.2,683.8,296.2z" transform="matrix(1, 0, 0, 1, -502.74251975754714, -30.349286118155348)" style="fill: rgb(84, 84, 84);"/><path d="M683.8,264.3c-1,0-1.9-0.8-1.9-1.9v-7.5c0-1,0.8-1.9,1.9-1.9s1.9,0.8,1.9,1.9v7.5C685.7,263.4,684.8,264.3,683.8,264.3&#10;&#9;&#9;&#9;&#9;&#9;&#9;z" transform="matrix(1, 0, 0, 1, -502.74251975754714, -30.349286118155348)" style="fill: rgb(84, 84, 84);"/>
</svg>