<?xml version="1.0" encoding="utf-8"?>
<svg id="master-artboard" viewBox="0 0 570 570" version="1.1" xmlns="http://www.w3.org/2000/svg" x="0px" y="0px" style="enable-background:new 0 0 612 792;" width="570px" height="570px"><rect id="ee-background" x="0" y="0" width="570" height="570" style="fill: white; fill-opacity: 0; pointer-events: none;"/>

<path d="M 273.29998779296875 350.79998779296875 L 340 350.79998779296875 L 319.5 567.7999877929688 L 304.29998779296875 494.6000061035156 L 289.8999938964844 567.4000244140625 L 273.29998779296875 350.79998779296875 Z" class="st1" style="fill-rule: evenodd; clip-rule: evenodd; fill: rgb(255, 204, 0);" transform="matrix(1, 0, 0, 1, -21.00358295440674, -37.9506721496582)"/><path d="M 293 440.1000061035156 L 304.29998779296875 411.79998779296875 L 317.3999938964844 440.1000061035156 L 333.5 350.79998779296875 L 276.3999938964844 350.79998779296875 L 293 440.1000061035156 Z" class="st2" style="fill-rule: evenodd; clip-rule: evenodd; fill: rgb(153, 0, 0);" transform="matrix(1, 0, 0, 1, -21.00358295440674, -37.9506721496582)"/><path class="st3" d="M262.7,345h84.2c2.2,2.4,64.9-159.4-42.1-279C286.8,98.9,206.9,183.3,262.7,345L262.7,345z" style="fill-rule: evenodd; clip-rule: evenodd; fill: rgb(102, 106, 105);" transform="matrix(1, 0, 0, 1, -21.00358295440674, -37.9506721496582)"/><path d="M 266.29998779296875 344.8999938964844 L 270.70001220703125 351 L 338.6000061035156 350.8999938964844 L 343.3999938964844 344.8999938964844 L 266.29998779296875 344.8999938964844 Z" class="st4" style="fill-rule: evenodd; clip-rule: evenodd; fill: rgb(77, 77, 77);" transform="matrix(1, 0, 0, 1, -21.00358295440674, -37.9506721496582)"/><path class="st5" d="M398.4,352c0,0,10.1,3.2,13.6-9.1c3.5-12.3-11-89.5-44.8-116.5c0.7,63.1-15.4,109-21.2,118&#10;&#9;&#9;C356.7,343.2,374.2,339.9,398.4,352L398.4,352z" style="fill-rule: evenodd; clip-rule: evenodd; fill: rgb(0, 0, 0);" transform="matrix(1, 0, 0, 1, -21.00358295440674, -37.9506721496582)"/><path class="st5" d="M212.1,353.6c0,0-10.1,3.2-13.6-9.1c-3.5-12.3,11-89.5,44.8-116.5c-0.7,63.1,15.4,109,21.2,118&#10;&#9;&#9;C253.9,344.8,236.3,341.5,212.1,353.6L212.1,353.6z" style="fill-rule: evenodd; clip-rule: evenodd; fill: rgb(0, 0, 0);" transform="matrix(1, 0, 0, 1, -20.69826889038086, -39.299461364746094)"/><path class="st6" d="M304.4,226c0,0-24.2,0.5-26.8,24.9c-2.6,24.3,15,90.3,19.9,98.1c4.9,7.8,7.3,8.8,7.3,8.8S304.9,226,304.4,226&#10;&#9;&#9;L304.4,226z" style="fill-rule: evenodd; clip-rule: evenodd; fill: rgb(0, 0, 0);" transform="matrix(1, 0, 0, 1, -21.00358295440674, -37.9506721496582)"/><path class="st6" d="M304,226c0,0,23.9,0.5,26.5,24.9c2.6,24.3-15,90.3-19.9,98.1c-4.9,7.8-7,8.8-7,8.8S303.5,226,304,226L304,226z&#10;&#9;&#9;" style="fill-rule: evenodd; clip-rule: evenodd; fill: rgb(204, 196, 198);" transform="matrix(1, 0, 0, 1, -21.00358295440674, -37.9506721496582)"/><path class="st1" d="M304.7,128.2c-20.6,0-37.3,16.7-37.3,37.3c0,20.6,16.7,37.3,37.3,37.3c20.6,0,37.3-16.7,37.3-37.3&#10;&#9;&#9;C342.1,144.9,325.4,128.2,304.7,128.2L304.7,128.2z" style="fill-rule: evenodd; clip-rule: evenodd; fill: rgb(204, 196, 198);" transform="matrix(1, 0, 0, 1, -21.00358295440674, -37.9506721496582)"/><path class="st7" d="M304.9,138.9c14.7,0,26.6,11.9,26.6,26.6c0,14.7-11.9,26.6-26.6,26.6c-14.7,0-26.6-11.9-26.6-26.6&#10;&#9;&#9;C278.3,150.8,290.2,138.9,304.9,138.9L304.9,138.9z" style="fill-rule: evenodd; clip-rule: evenodd; fill: rgb(229, 229, 229); stroke: rgb(77, 77, 77); stroke-width: 0.5; stroke-miterlimit: 2.6131;" transform="matrix(1, 0, 0, 1, -21.00358295440674, -37.9506721496582)"/><path class="st8" d="M335.4,151.9c-0.7,0-1.3,0.6-1.3,1.3s0.6,1.3,1.3,1.3c0.7,0,1.4-0.6,1.4-1.3S336.1,151.9,335.4,151.9&#10;&#9;&#9;L335.4,151.9z" style="fill-rule: evenodd; clip-rule: evenodd; fill: rgb(51, 51, 51); stroke: rgb(77, 77, 77); stroke-width: 0.5; stroke-miterlimit: 2.6131;" transform="matrix(1, 0, 0, 1, -21.00358295440674, -37.9506721496582)"/><path class="st8" d="M318.5,196.1c0-0.7-0.6-1.3-1.4-1.3c-0.7,0-1.3,0.6-1.3,1.3c0,0.7,0.6,1.3,1.3,1.3&#10;&#9;&#9;C317.9,197.4,318.5,196.8,318.5,196.1L318.5,196.1z" style="fill-rule: evenodd; clip-rule: evenodd; fill: rgb(51, 51, 51); stroke: rgb(77, 77, 77); stroke-width: 0.5; stroke-miterlimit: 2.6131;" transform="matrix(1, 0, 0, 1, -21.00358295440674, -37.9506721496582)"/><path class="st8" d="M328.5,141.8c-0.7,0-1.4,0.6-1.4,1.3c0,0.7,0.6,1.3,1.4,1.3c0.7,0,1.3-0.6,1.3-1.3&#10;&#9;&#9;C329.9,142.4,329.3,141.8,328.5,141.8L328.5,141.8z" style="fill-rule: evenodd; clip-rule: evenodd; fill: rgb(51, 51, 51); stroke: rgb(77, 77, 77); stroke-width: 0.5; stroke-miterlimit: 2.6131;" transform="matrix(1, 0, 0, 1, -21.00358295440674, -37.9506721496582)"/><path class="st8" d="M329.4,188.8c0-0.7-0.6-1.3-1.4-1.3c-0.7,0-1.3,0.6-1.3,1.3c0,0.7,0.6,1.3,1.3,1.3&#10;&#9;&#9;C328.8,190.1,329.4,189.5,329.4,188.8L329.4,188.8z" style="fill-rule: evenodd; clip-rule: evenodd; fill: rgb(51, 51, 51); stroke: rgb(77, 77, 77); stroke-width: 0.5; stroke-miterlimit: 2.6131;" transform="matrix(1, 0, 0, 1, -21.00358295440674, -37.9506721496582)"/><path class="st8" d="M337.2,164.4c-0.7,0-1.4,0.6-1.4,1.3c0,0.7,0.6,1.3,1.4,1.3c0.7,0,1.3-0.6,1.3-1.3&#10;&#9;&#9;C338.5,165,337.9,164.4,337.2,164.4L337.2,164.4z" style="fill-rule: evenodd; clip-rule: evenodd; fill: rgb(51, 51, 51); stroke: rgb(77, 77, 77); stroke-width: 0.5; stroke-miterlimit: 2.6131;" transform="matrix(1, 0, 0, 1, -21.00358295440674, -37.9506721496582)"/><path class="st8" d="M317.8,134.5c-0.7,0-1.4,0.6-1.4,1.3c0,0.7,0.6,1.3,1.4,1.3s1.3-0.6,1.3-1.3&#10;&#9;&#9;C319.2,135.1,318.6,134.5,317.8,134.5L317.8,134.5z" style="fill-rule: evenodd; clip-rule: evenodd; fill: rgb(51, 51, 51); stroke: rgb(77, 77, 77); stroke-width: 0.5; stroke-miterlimit: 2.6131;" transform="matrix(1, 0, 0, 1, -21.00358295440674, -37.9506721496582)"/><path class="st8" d="M336.9,177.4c0-0.7-0.6-1.3-1.4-1.3c-0.7,0-1.3,0.6-1.3,1.3c0,0.7,0.6,1.3,1.3,1.3&#10;&#9;&#9;C336.3,178.7,336.9,178.1,336.9,177.4L336.9,177.4z" style="fill-rule: evenodd; clip-rule: evenodd; fill: rgb(51, 51, 51); stroke: rgb(77, 77, 77); stroke-width: 0.5; stroke-miterlimit: 2.6131;" transform="matrix(1, 0, 0, 1, -21.00358295440674, -37.9506721496582)"/><path class="st8" d="M304.5,131.2c0.7,0,1.3,0.6,1.3,1.3c0,0.7-0.6,1.3-1.3,1.3c-0.7,0-1.3-0.6-1.3-1.3&#10;&#9;&#9;C303.2,131.8,303.8,131.2,304.5,131.2L304.5,131.2z" style="fill-rule: evenodd; clip-rule: evenodd; fill: rgb(51, 51, 51); stroke: rgb(77, 77, 77); stroke-width: 0.5; stroke-miterlimit: 2.6131;" transform="matrix(1, 0, 0, 1, -21.00358295440674, -37.9506721496582)"/><path class="st8" d="M272.7,177.4c0-0.7,0.6-1.3,1.3-1.3c0.7,0,1.3,0.6,1.3,1.3c0,0.7-0.6,1.3-1.3,1.3&#10;&#9;&#9;C273.3,178.7,272.7,178.1,272.7,177.4L272.7,177.4z" style="fill-rule: evenodd; clip-rule: evenodd; fill: rgb(51, 51, 51); stroke: rgb(77, 77, 77); stroke-width: 0.5; stroke-miterlimit: 2.6131;" transform="matrix(1, 0, 0, 1, -21.00358295440674, -37.9506721496582)"/><path class="st8" d="M274.2,151.9c0.7,0,1.3,0.6,1.3,1.3s-0.6,1.3-1.3,1.3c-0.7,0-1.3-0.6-1.3-1.3S273.5,151.9,274.2,151.9&#10;&#9;&#9;L274.2,151.9z" style="fill-rule: evenodd; clip-rule: evenodd; fill: rgb(51, 51, 51); stroke: rgb(77, 77, 77); stroke-width: 0.5; stroke-miterlimit: 2.6131;" transform="matrix(1, 0, 0, 1, -21.00358295440674, -37.9506721496582)"/><path class="st8" d="M290.8,196.1c0-0.7,0.6-1.3,1.3-1.3c0.7,0,1.3,0.6,1.3,1.3c0,0.7-0.6,1.3-1.3,1.3&#10;&#9;&#9;C291.4,197.4,290.8,196.8,290.8,196.1L290.8,196.1z" style="fill-rule: evenodd; clip-rule: evenodd; fill: rgb(51, 51, 51); stroke: rgb(77, 77, 77); stroke-width: 0.5; stroke-miterlimit: 2.6131;" transform="matrix(1, 0, 0, 1, -21.00358295440674, -37.9506721496582)"/><path class="st8" d="M280.9,141.8c0.7,0,1.3,0.6,1.3,1.3c0,0.7-0.6,1.3-1.3,1.3c-0.7,0-1.3-0.6-1.3-1.3&#10;&#9;&#9;C279.6,142.4,280.2,141.8,280.9,141.8L280.9,141.8z" style="fill-rule: evenodd; clip-rule: evenodd; fill: rgb(51, 51, 51); stroke: rgb(77, 77, 77); stroke-width: 0.5; stroke-miterlimit: 2.6131;" transform="matrix(1, 0, 0, 1, -21.00358295440674, -37.9506721496582)"/><path class="st8" d="M280.1,188.8c0-0.7,0.6-1.3,1.3-1.3c0.7,0,1.3,0.6,1.3,1.3c0,0.7-0.6,1.3-1.3,1.3&#10;&#9;&#9;C280.7,190.1,280.1,189.5,280.1,188.8L280.1,188.8z" style="fill-rule: evenodd; clip-rule: evenodd; fill: rgb(51, 51, 51); stroke: rgb(77, 77, 77); stroke-width: 0.5; stroke-miterlimit: 2.6131;" transform="matrix(1, 0, 0, 1, -21.00358295440674, -37.9506721496582)"/><path class="st8" d="M272.5,164.4c0.7,0,1.3,0.6,1.3,1.3c0,0.7-0.6,1.3-1.3,1.3c-0.7,0-1.3-0.6-1.3-1.3&#10;&#9;&#9;C271.1,165,271.7,164.4,272.5,164.4L272.5,164.4z" style="fill-rule: evenodd; clip-rule: evenodd; fill: rgb(51, 51, 51); stroke: rgb(77, 77, 77); stroke-width: 0.5; stroke-miterlimit: 2.6131;" transform="matrix(1, 0, 0, 1, -21.00358295440674, -37.9506721496582)"/><path class="st8" d="M303.1,198.7c0-0.7,0.6-1.3,1.3-1.3c0.7,0,1.3,0.6,1.3,1.3c0,0.7-0.6,1.3-1.3,1.3&#10;&#9;&#9;C303.7,200,303.1,199.4,303.1,198.7L303.1,198.7z" style="fill-rule: evenodd; clip-rule: evenodd; fill: rgb(51, 51, 51); stroke: rgb(77, 77, 77); stroke-width: 0.5; stroke-miterlimit: 2.6131;" transform="matrix(1, 0, 0, 1, -21.00358295440674, -37.9506721496582)"/><path class="st8" d="M291.4,134.5c0.7,0,1.3,0.6,1.3,1.3c0,0.7-0.6,1.3-1.3,1.3c-0.7,0-1.3-0.6-1.3-1.3&#10;&#9;&#9;C290.1,135.1,290.7,134.5,291.4,134.5L291.4,134.5z" style="fill-rule: evenodd; clip-rule: evenodd; fill: rgb(51, 51, 51); stroke: rgb(77, 77, 77); stroke-width: 0.5; stroke-miterlimit: 2.6131;" transform="matrix(1, 0, 0, 1, -21.00358295440674, -37.9506721496582)"/>
</svg>